<svg width="25" height="16" viewBox="0 0 25 16" fill="#ffffff" xmlns="http://www.w3.org/2000/svg">
<path d="M16.4524 14.8034C15.2063 13.5573 15.2063 11.5369 16.4524 10.2908L19.2936 7.44958C20.5397 6.20347 22.5601 6.20347 23.8062 7.44958C25.0523 8.69569 25.0523 10.716 23.8062 11.9621L20.9649 14.8034C19.7188 16.0495 17.6985 16.0495 16.4524 14.8034Z" fill="#333333"/>
<path d="M13.9791 4.87368C13.5029 5.34985 13.5029 6.12186 13.9791 6.59802L15.0648 7.68371C15.5409 8.15987 16.3129 8.15987 16.7891 7.68371C17.2653 7.20755 17.2653 6.43554 16.7891 5.95938L15.7034 4.87368C15.2273 4.39752 14.4552 4.39752 13.9791 4.87368Z" fill="#333333"/>
<path d="M13.9791 4.87368C13.5029 5.34985 13.5029 6.12186 13.9791 6.59802L15.0648 7.68371C15.5409 8.15987 16.3129 8.15987 16.7891 7.68371C17.2653 7.20755 17.2653 6.43554 16.7891 5.95938L15.7034 4.87368C15.2273 4.39752 14.4552 4.39752 13.9791 4.87368Z" fill="#333333"/>
<path d="M18.6856 0.619206C18.2095 1.09537 18.2095 1.86738 18.6856 2.34354L19.7713 3.42923C20.2475 3.90539 21.0195 3.90539 21.4956 3.42923C21.9718 2.95307 21.9718 2.18106 21.4956 1.7049L20.41 0.619206C19.9338 0.143045 19.1618 0.143045 18.6856 0.619206Z" fill="#333333"/>
<path d="M8.28838 14.8034C9.53448 13.5573 9.53448 11.5369 8.28838 10.2908L5.44714 7.44958C4.20103 6.20347 2.18069 6.20347 0.934581 7.44958C-0.311527 8.69569 -0.311527 10.716 0.934581 11.9621L3.77582 14.8034C5.02193 16.0495 7.04227 16.0495 8.28838 14.8034Z" fill="#333333"/>
<path d="M10.8594 4.87648C11.3356 5.35264 11.3356 6.12465 10.8594 6.60082L9.77375 7.68651C9.29759 8.16267 8.52558 8.16267 8.04941 7.68651C7.57325 7.21035 7.57325 6.43834 8.04941 5.96217L9.13511 4.87648C9.61127 4.40032 10.3833 4.40032 10.8594 4.87648Z" fill="#333333"/>
<path d="M10.8594 4.87648C11.3356 5.35264 11.3356 6.12465 10.8594 6.60082L9.77375 7.68651C9.29759 8.16267 8.52558 8.16267 8.04941 7.68651C7.57325 7.21035 7.57325 6.43834 8.04941 5.96217L9.13511 4.87648C9.61127 4.40032 10.3833 4.40032 10.8594 4.87648Z" fill="#333333"/>
<path d="M6.13224 0.619206C6.6084 1.09537 6.6084 1.86738 6.13224 2.34354L5.04655 3.42923C4.57039 3.90539 3.79838 3.90539 3.32222 3.42923C2.84605 2.95307 2.84605 2.18106 3.32222 1.7049L4.40791 0.619206C4.88407 0.143045 5.65608 0.143045 6.13224 0.619206Z" fill="#333333"/>
<path d="M11.9727 10.2194C12.2023 10.4466 12.5721 10.4466 12.8016 10.2194C13.1758 9.84909 12.9136 9.21143 12.3872 9.21143C11.8608 9.21143 11.5986 9.84909 11.9727 10.2194Z" fill="#333333"/>
</svg>
